<svg xmlns="http://www.w3.org/2000/svg" width="1500" height="930" viewBox="0 0 1500 930">
<style>
text { font-family: Arial, Helvetica, sans-serif; fill: #222; }
.title { font-size: 30px; font-weight: 700; }
.subtitle { font-size: 16px; fill: #555; }
.panel-title { font-size: 19px; font-weight: 700; }
.axis-label { font-size: 15px; fill: #333; }
.tick { font-size: 12px; fill: #555; }
.grid { stroke: #ddd; stroke-width: 1; }
.axis { stroke: #333; stroke-width: 1.4; }
.series { fill: none; stroke-width: 2.7; }
</style>
<rect x="0" y="0" width="100%" height="100%" fill="white"/>
<text class="title" x="750" y="42" text-anchor="middle">Runtime vs Total Cores</text>
<text class="subtitle" x="750" y="68" text-anchor="middle">Median solve/runtime seconds by thread count; x-axis is nodes x ppn x threads; y-scale: linear</text>
<g transform="translate(0,0)">
<text class="panel-title" x="86.00" y="112.00">1.00M unknowns</text>
<rect x="86.00" y="130.00" width="411.33" height="313.00" fill="#fafafa" stroke="#c8c8c8"/>
<line class="grid" x1="86.00" y1="443.00" x2="497.33" y2="443.00"/>
<text class="tick" x="77.00" y="447.00" text-anchor="end">0</text>
<line class="grid" x1="86.00" y1="325.46" x2="497.33" y2="325.46"/>
<text class="tick" x="77.00" y="329.46" text-anchor="end">100</text>
<line class="grid" x1="86.00" y1="207.92" x2="497.33" y2="207.92"/>
<text class="tick" x="77.00" y="211.92" text-anchor="end">200</text>
<line class="grid" x1="86.00" y1="130.00" x2="86.00" y2="443.00"/>
<text class="tick" x="86.00" y="463.00" text-anchor="middle">1</text>
<line class="grid" x1="144.76" y1="130.00" x2="144.76" y2="443.00"/>
<text class="tick" x="144.76" y="463.00" text-anchor="middle">2</text>
<line class="grid" x1="203.52" y1="130.00" x2="203.52" y2="443.00"/>
<text class="tick" x="203.52" y="463.00" text-anchor="middle">4</text>
<line class="grid" x1="262.29" y1="130.00" x2="262.29" y2="443.00"/>
<text class="tick" x="262.29" y="463.00" text-anchor="middle">8</text>
<line class="grid" x1="321.05" y1="130.00" x2="321.05" y2="443.00"/>
<text class="tick" x="321.05" y="463.00" text-anchor="middle">16</text>
<line class="grid" x1="379.81" y1="130.00" x2="379.81" y2="443.00"/>
<text class="tick" x="379.81" y="463.00" text-anchor="middle">32</text>
<line class="grid" x1="438.57" y1="130.00" x2="438.57" y2="443.00"/>
<text class="tick" x="438.57" y="463.00" text-anchor="middle">64</text>
<line class="grid" x1="497.33" y1="130.00" x2="497.33" y2="443.00"/>
<text class="tick" x="497.33" y="463.00" text-anchor="middle">128</text>
<line class="axis" x1="86.00" y1="443.00" x2="497.33" y2="443.00"/>
<line class="axis" x1="86.00" y1="130.00" x2="86.00" y2="443.00"/>
<path class="series" d="M 86.00 152.85 L 144.76 344.49 L 203.52 385.10 L 262.29 372.27 L 321.05 342.54 L 379.81 407.97 L 438.57 433.43 L 497.33 438.47" stroke="#1f77b4"/>
<circle cx="86.00" cy="152.85" r="4" fill="#1f77b4" />
<circle cx="144.76" cy="344.49" r="4" fill="#1f77b4" />
<circle cx="203.52" cy="385.10" r="4" fill="#1f77b4" />
<circle cx="262.29" cy="372.27" r="4" fill="#1f77b4" />
<circle cx="321.05" cy="342.54" r="4" fill="#1f77b4" />
<circle cx="379.81" cy="407.97" r="4" fill="#1f77b4" />
<circle cx="438.57" cy="433.43" r="4" fill="#1f77b4" />
<circle cx="497.33" cy="438.47" r="4" fill="#1f77b4" />
<path class="series" d="M 144.76 172.07 L 203.52 350.32 L 262.29 392.03 L 321.05 401.11 L 379.81 397.58 L 438.57 432.12 L 497.33 437.86" stroke="#ff7f0e"/>
<rect x="140.76" y="168.07" width="8" height="8" fill="#ff7f0e" />
<rect x="199.52" y="346.32" width="8" height="8" fill="#ff7f0e" />
<rect x="258.29" y="388.03" width="8" height="8" fill="#ff7f0e" />
<rect x="317.05" y="397.11" width="8" height="8" fill="#ff7f0e" />
<rect x="375.81" y="393.58" width="8" height="8" fill="#ff7f0e" />
<rect x="434.57" y="428.12" width="8" height="8" fill="#ff7f0e" />
<rect x="493.33" y="433.86" width="8" height="8" fill="#ff7f0e" />
<path class="series" d="M 203.52 174.89 L 262.29 356.10 L 321.05 407.08 L 379.81 415.78 L 438.57 422.75 L 497.33 435.48" stroke="#2ca02c"/>
<path d="M 203.52 169.89 L 208.52 178.89 L 198.52 178.89 Z" fill="#2ca02c" />
<path d="M 262.29 351.10 L 267.29 360.10 L 257.29 360.10 Z" fill="#2ca02c" />
<path d="M 321.05 402.08 L 326.05 411.08 L 316.05 411.08 Z" fill="#2ca02c" />
<path d="M 379.81 410.78 L 384.81 419.78 L 374.81 419.78 Z" fill="#2ca02c" />
<path d="M 438.57 417.75 L 443.57 426.75 L 433.57 426.75 Z" fill="#2ca02c" />
<path d="M 497.33 430.48 L 502.33 439.48 L 492.33 439.48 Z" fill="#2ca02c" />
<path class="series" d="M 262.29 177.42 L 321.05 360.37 L 379.81 412.56 L 438.57 423.78 L 497.33 424.83" stroke="#d62728"/>
<path d="M 262.29 172.42 L 267.29 177.42 L 262.29 182.42 L 257.29 177.42 Z" fill="#d62728" />
<path d="M 321.05 355.37 L 326.05 360.37 L 321.05 365.37 L 316.05 360.37 Z" fill="#d62728" />
<path d="M 379.81 407.56 L 384.81 412.56 L 379.81 417.56 L 374.81 412.56 Z" fill="#d62728" />
<path d="M 438.57 418.78 L 443.57 423.78 L 438.57 428.78 L 433.57 423.78 Z" fill="#d62728" />
<path d="M 497.33 419.83 L 502.33 424.83 L 497.33 429.83 L 492.33 424.83 Z" fill="#d62728" />
</g>
<g transform="translate(0,0)">
<text class="panel-title" x="567.33" y="112.00">5.02M unknowns</text>
<rect x="567.33" y="130.00" width="411.33" height="313.00" fill="#fafafa" stroke="#c8c8c8"/>
<line class="grid" x1="567.33" y1="443.00" x2="978.67" y2="443.00"/>
<text class="tick" x="558.33" y="447.00" text-anchor="end">0</text>
<line class="grid" x1="567.33" y1="287.96" x2="978.67" y2="287.96"/>
<text class="tick" x="558.33" y="291.96" text-anchor="end">1k</text>
<line class="grid" x1="567.33" y1="132.91" x2="978.67" y2="132.91"/>
<text class="tick" x="558.33" y="136.91" text-anchor="end">2k</text>
<line class="grid" x1="567.33" y1="130.00" x2="567.33" y2="443.00"/>
<text class="tick" x="567.33" y="463.00" text-anchor="middle">1</text>
<line class="grid" x1="626.10" y1="130.00" x2="626.10" y2="443.00"/>
<text class="tick" x="626.10" y="463.00" text-anchor="middle">2</text>
<line class="grid" x1="684.86" y1="130.00" x2="684.86" y2="443.00"/>
<text class="tick" x="684.86" y="463.00" text-anchor="middle">4</text>
<line class="grid" x1="743.62" y1="130.00" x2="743.62" y2="443.00"/>
<text class="tick" x="743.62" y="463.00" text-anchor="middle">8</text>
<line class="grid" x1="802.38" y1="130.00" x2="802.38" y2="443.00"/>
<text class="tick" x="802.38" y="463.00" text-anchor="middle">16</text>
<line class="grid" x1="861.14" y1="130.00" x2="861.14" y2="443.00"/>
<text class="tick" x="861.14" y="463.00" text-anchor="middle">32</text>
<line class="grid" x1="919.90" y1="130.00" x2="919.90" y2="443.00"/>
<text class="tick" x="919.90" y="463.00" text-anchor="middle">64</text>
<line class="grid" x1="978.67" y1="130.00" x2="978.67" y2="443.00"/>
<text class="tick" x="978.67" y="463.00" text-anchor="middle">128</text>
<line class="axis" x1="567.33" y1="443.00" x2="978.67" y2="443.00"/>
<line class="axis" x1="567.33" y1="130.00" x2="567.33" y2="443.00"/>
<path class="series" d="M 567.33 152.45 L 626.10 266.87 L 684.86 279.90 L 743.62 277.57 L 802.38 317.40 L 861.14 391.79 L 919.90 422.02 L 978.67 433.07" stroke="#1f77b4"/>
<circle cx="567.33" cy="152.45" r="4" fill="#1f77b4" />
<circle cx="626.10" cy="266.87" r="4" fill="#1f77b4" />
<circle cx="684.86" cy="279.90" r="4" fill="#1f77b4" />
<circle cx="743.62" cy="277.57" r="4" fill="#1f77b4" />
<circle cx="802.38" cy="317.40" r="4" fill="#1f77b4" />
<circle cx="861.14" cy="391.79" r="4" fill="#1f77b4" />
<circle cx="919.90" cy="422.02" r="4" fill="#1f77b4" />
<circle cx="978.67" cy="433.07" r="4" fill="#1f77b4" />
<path class="series" d="M 626.10 172.92 L 684.86 267.03 L 743.62 279.74 L 802.38 316.28 L 861.14 391.46 L 919.90 422.01 L 978.67 432.96" stroke="#ff7f0e"/>
<rect x="622.10" y="168.92" width="8" height="8" fill="#ff7f0e" />
<rect x="680.86" y="263.03" width="8" height="8" fill="#ff7f0e" />
<rect x="739.62" y="275.74" width="8" height="8" fill="#ff7f0e" />
<rect x="798.38" y="312.28" width="8" height="8" fill="#ff7f0e" />
<rect x="857.14" y="387.46" width="8" height="8" fill="#ff7f0e" />
<rect x="915.90" y="418.01" width="8" height="8" fill="#ff7f0e" />
<rect x="974.67" y="428.96" width="8" height="8" fill="#ff7f0e" />
<path class="series" d="M 684.86 172.14 L 743.62 265.01 L 802.38 314.50 L 861.14 386.36 L 919.90 418.77 L 978.67 431.22" stroke="#2ca02c"/>
<path d="M 684.86 167.14 L 689.86 176.14 L 679.86 176.14 Z" fill="#2ca02c" />
<path d="M 743.62 260.01 L 748.62 269.01 L 738.62 269.01 Z" fill="#2ca02c" />
<path d="M 802.38 309.50 L 807.38 318.50 L 797.38 318.50 Z" fill="#2ca02c" />
<path d="M 861.14 381.36 L 866.14 390.36 L 856.14 390.36 Z" fill="#2ca02c" />
<path d="M 919.90 413.77 L 924.90 422.77 L 914.90 422.77 Z" fill="#2ca02c" />
<path d="M 978.67 426.22 L 983.67 435.22 L 973.67 435.22 Z" fill="#2ca02c" />
<path class="series" d="M 743.62 169.04 L 802.38 274.93 L 861.14 360.53 L 919.90 405.37 L 978.67 424.57" stroke="#d62728"/>
<path d="M 743.62 164.04 L 748.62 169.04 L 743.62 174.04 L 738.62 169.04 Z" fill="#d62728" />
<path d="M 802.38 269.93 L 807.38 274.93 L 802.38 279.93 L 797.38 274.93 Z" fill="#d62728" />
<path d="M 861.14 355.53 L 866.14 360.53 L 861.14 365.53 L 856.14 360.53 Z" fill="#d62728" />
<path d="M 919.90 400.37 L 924.90 405.37 L 919.90 410.37 L 914.90 405.37 Z" fill="#d62728" />
<path d="M 978.67 419.57 L 983.67 424.57 L 978.67 429.57 L 973.67 424.57 Z" fill="#d62728" />
</g>
<g transform="translate(0,0)">
<text class="panel-title" x="1048.67" y="112.00">9.99M unknowns</text>
<rect x="1048.67" y="130.00" width="411.33" height="313.00" fill="#fafafa" stroke="#c8c8c8"/>
<line class="grid" x1="1048.67" y1="443.00" x2="1460.00" y2="443.00"/>
<text class="tick" x="1039.67" y="447.00" text-anchor="end">0</text>
<line class="grid" x1="1048.67" y1="364.66" x2="1460.00" y2="364.66"/>
<text class="tick" x="1039.67" y="368.66" text-anchor="end">1k</text>
<line class="grid" x1="1048.67" y1="286.32" x2="1460.00" y2="286.32"/>
<text class="tick" x="1039.67" y="290.32" text-anchor="end">2k</text>
<line class="grid" x1="1048.67" y1="207.98" x2="1460.00" y2="207.98"/>
<text class="tick" x="1039.67" y="211.98" text-anchor="end">3k</text>
<line class="grid" x1="1048.67" y1="130.00" x2="1048.67" y2="443.00"/>
<text class="tick" x="1048.67" y="463.00" text-anchor="middle">1</text>
<line class="grid" x1="1107.43" y1="130.00" x2="1107.43" y2="443.00"/>
<text class="tick" x="1107.43" y="463.00" text-anchor="middle">2</text>
<line class="grid" x1="1166.19" y1="130.00" x2="1166.19" y2="443.00"/>
<text class="tick" x="1166.19" y="463.00" text-anchor="middle">4</text>
<line class="grid" x1="1224.95" y1="130.00" x2="1224.95" y2="443.00"/>
<text class="tick" x="1224.95" y="463.00" text-anchor="middle">8</text>
<line class="grid" x1="1283.71" y1="130.00" x2="1283.71" y2="443.00"/>
<text class="tick" x="1283.71" y="463.00" text-anchor="middle">16</text>
<line class="grid" x1="1342.48" y1="130.00" x2="1342.48" y2="443.00"/>
<text class="tick" x="1342.48" y="463.00" text-anchor="middle">32</text>
<line class="grid" x1="1401.24" y1="130.00" x2="1401.24" y2="443.00"/>
<text class="tick" x="1401.24" y="463.00" text-anchor="middle">64</text>
<line class="grid" x1="1460.00" y1="130.00" x2="1460.00" y2="443.00"/>
<text class="tick" x="1460.00" y="463.00" text-anchor="middle">128</text>
<line class="axis" x1="1048.67" y1="443.00" x2="1460.00" y2="443.00"/>
<line class="axis" x1="1048.67" y1="130.00" x2="1048.67" y2="443.00"/>
<path class="series" d="M 1048.67 152.39 L 1107.43 267.75 L 1166.19 281.30 L 1224.95 274.96 L 1283.71 299.01 L 1342.48 380.01 L 1401.24 417.17 L 1460.00 432.31" stroke="#1f77b4"/>
<circle cx="1048.67" cy="152.39" r="4" fill="#1f77b4" />
<circle cx="1107.43" cy="267.75" r="4" fill="#1f77b4" />
<circle cx="1166.19" cy="281.30" r="4" fill="#1f77b4" />
<circle cx="1224.95" cy="274.96" r="4" fill="#1f77b4" />
<circle cx="1283.71" cy="299.01" r="4" fill="#1f77b4" />
<circle cx="1342.48" cy="380.01" r="4" fill="#1f77b4" />
<circle cx="1401.24" cy="417.17" r="4" fill="#1f77b4" />
<circle cx="1460.00" cy="432.31" r="4" fill="#1f77b4" />
<path class="series" d="M 1107.43 171.78 L 1166.19 267.24 L 1224.95 280.99 L 1283.71 302.22 L 1342.48 379.57 L 1401.24 417.00 L 1460.00 432.29" stroke="#ff7f0e"/>
<rect x="1103.43" y="167.78" width="8" height="8" fill="#ff7f0e" />
<rect x="1162.19" y="263.24" width="8" height="8" fill="#ff7f0e" />
<rect x="1220.95" y="276.99" width="8" height="8" fill="#ff7f0e" />
<rect x="1279.71" y="298.22" width="8" height="8" fill="#ff7f0e" />
<rect x="1338.48" y="375.57" width="8" height="8" fill="#ff7f0e" />
<rect x="1397.24" y="413.00" width="8" height="8" fill="#ff7f0e" />
<rect x="1456.00" y="428.29" width="8" height="8" fill="#ff7f0e" />
<path class="series" d="M 1166.19 170.61 L 1224.95 264.77 L 1283.71 304.88 L 1342.48 378.44 L 1401.24 414.31 L 1460.00 430.67" stroke="#2ca02c"/>
<path d="M 1166.19 165.61 L 1171.19 174.61 L 1161.19 174.61 Z" fill="#2ca02c" />
<path d="M 1224.95 259.77 L 1229.95 268.77 L 1219.95 268.77 Z" fill="#2ca02c" />
<path d="M 1283.71 299.88 L 1288.71 308.88 L 1278.71 308.88 Z" fill="#2ca02c" />
<path d="M 1342.48 373.44 L 1347.48 382.44 L 1337.48 382.44 Z" fill="#2ca02c" />
<path d="M 1401.24 409.31 L 1406.24 418.31 L 1396.24 418.31 Z" fill="#2ca02c" />
<path d="M 1460.00 425.67 L 1465.00 434.67 L 1455.00 434.67 Z" fill="#2ca02c" />
<path class="series" d="M 1224.95 171.47 L 1283.71 274.17 L 1342.48 357.61 L 1401.24 401.42 L 1460.00 423.96" stroke="#d62728"/>
<path d="M 1224.95 166.47 L 1229.95 171.47 L 1224.95 176.47 L 1219.95 171.47 Z" fill="#d62728" />
<path d="M 1283.71 269.17 L 1288.71 274.17 L 1283.71 279.17 L 1278.71 274.17 Z" fill="#d62728" />
<path d="M 1342.48 352.61 L 1347.48 357.61 L 1342.48 362.61 L 1337.48 357.61 Z" fill="#d62728" />
<path d="M 1401.24 396.42 L 1406.24 401.42 L 1401.24 406.42 L 1396.24 401.42 Z" fill="#d62728" />
<path d="M 1460.00 418.96 L 1465.00 423.96 L 1460.00 428.96 L 1455.00 423.96 Z" fill="#d62728" />
</g>
<g transform="translate(0,0)">
<text class="panel-title" x="86.00" y="517.00">20.25M unknowns</text>
<rect x="86.00" y="535.00" width="411.33" height="313.00" fill="#fafafa" stroke="#c8c8c8"/>
<line class="grid" x1="86.00" y1="848.00" x2="497.33" y2="848.00"/>
<text class="tick" x="77.00" y="852.00" text-anchor="end">0</text>
<line class="grid" x1="86.00" y1="655.32" x2="497.33" y2="655.32"/>
<text class="tick" x="77.00" y="659.32" text-anchor="end">5k</text>
<line class="grid" x1="86.00" y1="535.00" x2="86.00" y2="848.00"/>
<text class="tick" x="86.00" y="868.00" text-anchor="middle">1</text>
<line class="grid" x1="144.76" y1="535.00" x2="144.76" y2="848.00"/>
<text class="tick" x="144.76" y="868.00" text-anchor="middle">2</text>
<line class="grid" x1="203.52" y1="535.00" x2="203.52" y2="848.00"/>
<text class="tick" x="203.52" y="868.00" text-anchor="middle">4</text>
<line class="grid" x1="262.29" y1="535.00" x2="262.29" y2="848.00"/>
<text class="tick" x="262.29" y="868.00" text-anchor="middle">8</text>
<line class="grid" x1="321.05" y1="535.00" x2="321.05" y2="848.00"/>
<text class="tick" x="321.05" y="868.00" text-anchor="middle">16</text>
<line class="grid" x1="379.81" y1="535.00" x2="379.81" y2="848.00"/>
<text class="tick" x="379.81" y="868.00" text-anchor="middle">32</text>
<line class="grid" x1="438.57" y1="535.00" x2="438.57" y2="848.00"/>
<text class="tick" x="438.57" y="868.00" text-anchor="middle">64</text>
<line class="grid" x1="497.33" y1="535.00" x2="497.33" y2="848.00"/>
<text class="tick" x="497.33" y="868.00" text-anchor="middle">128</text>
<line class="axis" x1="86.00" y1="848.00" x2="497.33" y2="848.00"/>
<line class="axis" x1="86.00" y1="535.00" x2="86.00" y2="848.00"/>
<path class="series" d="M 86.00 557.21 L 144.76 673.80 L 203.52 686.48 L 262.29 682.72 L 321.05 702.82 L 379.81 776.00 L 438.57 816.16 L 497.33 834.88" stroke="#1f77b4"/>
<circle cx="86.00" cy="557.21" r="4" fill="#1f77b4" />
<circle cx="144.76" cy="673.80" r="4" fill="#1f77b4" />
<circle cx="203.52" cy="686.48" r="4" fill="#1f77b4" />
<circle cx="262.29" cy="682.72" r="4" fill="#1f77b4" />
<circle cx="321.05" cy="702.82" r="4" fill="#1f77b4" />
<circle cx="379.81" cy="776.00" r="4" fill="#1f77b4" />
<circle cx="438.57" cy="816.16" r="4" fill="#1f77b4" />
<circle cx="497.33" cy="834.88" r="4" fill="#1f77b4" />
<path class="series" d="M 144.76 577.06 L 203.52 671.91 L 262.29 698.64 L 321.05 708.35 L 379.81 777.62 L 438.57 816.00 L 497.33 834.83" stroke="#ff7f0e"/>
<rect x="140.76" y="573.06" width="8" height="8" fill="#ff7f0e" />
<rect x="199.52" y="667.91" width="8" height="8" fill="#ff7f0e" />
<rect x="258.29" y="694.64" width="8" height="8" fill="#ff7f0e" />
<rect x="317.05" y="704.35" width="8" height="8" fill="#ff7f0e" />
<rect x="375.81" y="773.62" width="8" height="8" fill="#ff7f0e" />
<rect x="434.57" y="812.00" width="8" height="8" fill="#ff7f0e" />
<rect x="493.33" y="830.83" width="8" height="8" fill="#ff7f0e" />
<path class="series" d="M 203.52 574.86 L 262.29 675.57 L 321.05 758.87 L 379.81 778.89 L 438.57 815.36 L 497.33 833.50" stroke="#2ca02c"/>
<path d="M 203.52 569.86 L 208.52 578.86 L 198.52 578.86 Z" fill="#2ca02c" />
<path d="M 262.29 670.57 L 267.29 679.57 L 257.29 679.57 Z" fill="#2ca02c" />
<path d="M 321.05 753.87 L 326.05 762.87 L 316.05 762.87 Z" fill="#2ca02c" />
<path d="M 379.81 773.89 L 384.81 782.89 L 374.81 782.89 Z" fill="#2ca02c" />
<path d="M 438.57 810.36 L 443.57 819.36 L 433.57 819.36 Z" fill="#2ca02c" />
<path d="M 497.33 828.50 L 502.33 837.50 L 492.33 837.50 Z" fill="#2ca02c" />
<path class="series" d="M 262.29 572.51 L 321.05 678.83 L 379.81 762.66 L 438.57 804.99 L 497.33 826.92" stroke="#d62728"/>
<path d="M 262.29 567.51 L 267.29 572.51 L 262.29 577.51 L 257.29 572.51 Z" fill="#d62728" />
<path d="M 321.05 673.83 L 326.05 678.83 L 321.05 683.83 L 316.05 678.83 Z" fill="#d62728" />
<path d="M 379.81 757.66 L 384.81 762.66 L 379.81 767.66 L 374.81 762.66 Z" fill="#d62728" />
<path d="M 438.57 799.99 L 443.57 804.99 L 438.57 809.99 L 433.57 804.99 Z" fill="#d62728" />
<path d="M 497.33 821.92 L 502.33 826.92 L 497.33 831.92 L 492.33 826.92 Z" fill="#d62728" />
</g>
<g transform="translate(0,0)">
<text class="panel-title" x="567.33" y="517.00">40.96M unknowns</text>
<rect x="567.33" y="535.00" width="411.33" height="313.00" fill="#fafafa" stroke="#c8c8c8"/>
<line class="grid" x1="567.33" y1="848.00" x2="978.67" y2="848.00"/>
<text class="tick" x="558.33" y="852.00" text-anchor="end">0</text>
<line class="grid" x1="567.33" y1="753.61" x2="978.67" y2="753.61"/>
<text class="tick" x="558.33" y="757.61" text-anchor="end">5k</text>
<line class="grid" x1="567.33" y1="659.22" x2="978.67" y2="659.22"/>
<text class="tick" x="558.33" y="663.22" text-anchor="end">10k</text>
<line class="grid" x1="567.33" y1="564.84" x2="978.67" y2="564.84"/>
<text class="tick" x="558.33" y="568.84" text-anchor="end">15k</text>
<line class="grid" x1="567.33" y1="535.00" x2="567.33" y2="848.00"/>
<text class="tick" x="567.33" y="868.00" text-anchor="middle">1</text>
<line class="grid" x1="626.10" y1="535.00" x2="626.10" y2="848.00"/>
<text class="tick" x="626.10" y="868.00" text-anchor="middle">2</text>
<line class="grid" x1="684.86" y1="535.00" x2="684.86" y2="848.00"/>
<text class="tick" x="684.86" y="868.00" text-anchor="middle">4</text>
<line class="grid" x1="743.62" y1="535.00" x2="743.62" y2="848.00"/>
<text class="tick" x="743.62" y="868.00" text-anchor="middle">8</text>
<line class="grid" x1="802.38" y1="535.00" x2="802.38" y2="848.00"/>
<text class="tick" x="802.38" y="868.00" text-anchor="middle">16</text>
<line class="grid" x1="861.14" y1="535.00" x2="861.14" y2="848.00"/>
<text class="tick" x="861.14" y="868.00" text-anchor="middle">32</text>
<line class="grid" x1="919.90" y1="535.00" x2="919.90" y2="848.00"/>
<text class="tick" x="919.90" y="868.00" text-anchor="middle">64</text>
<line class="grid" x1="978.67" y1="535.00" x2="978.67" y2="848.00"/>
<text class="tick" x="978.67" y="868.00" text-anchor="middle">128</text>
<line class="axis" x1="567.33" y1="848.00" x2="978.67" y2="848.00"/>
<line class="axis" x1="567.33" y1="535.00" x2="567.33" y2="848.00"/>
<path class="series" d="M 567.33 557.00 L 626.10 675.48 L 684.86 688.22 L 743.62 683.73 L 802.38 705.32 L 861.14 775.79 L 919.90 812.04 L 978.67 832.01" stroke="#1f77b4"/>
<circle cx="567.33" cy="557.00" r="4" fill="#1f77b4" />
<circle cx="626.10" cy="675.48" r="4" fill="#1f77b4" />
<circle cx="684.86" cy="688.22" r="4" fill="#1f77b4" />
<circle cx="743.62" cy="683.73" r="4" fill="#1f77b4" />
<circle cx="802.38" cy="705.32" r="4" fill="#1f77b4" />
<circle cx="861.14" cy="775.79" r="4" fill="#1f77b4" />
<circle cx="919.90" cy="812.04" r="4" fill="#1f77b4" />
<circle cx="978.67" cy="832.01" r="4" fill="#1f77b4" />
<path class="series" d="M 626.10 580.50 L 684.86 673.47 L 743.62 687.48 L 802.38 708.78 L 861.14 778.44 L 919.90 812.91 L 978.67 831.94" stroke="#ff7f0e"/>
<rect x="622.10" y="576.50" width="8" height="8" fill="#ff7f0e" />
<rect x="680.86" y="669.47" width="8" height="8" fill="#ff7f0e" />
<rect x="739.62" y="683.48" width="8" height="8" fill="#ff7f0e" />
<rect x="798.38" y="704.78" width="8" height="8" fill="#ff7f0e" />
<rect x="857.14" y="774.44" width="8" height="8" fill="#ff7f0e" />
<rect x="915.90" y="808.91" width="8" height="8" fill="#ff7f0e" />
<rect x="974.67" y="827.94" width="8" height="8" fill="#ff7f0e" />
<path class="series" d="M 684.86 578.71 L 743.62 671.31 L 802.38 709.99 L 861.14 779.08 L 919.90 813.53 L 978.67 831.64" stroke="#2ca02c"/>
<path d="M 684.86 573.71 L 689.86 582.71 L 679.86 582.71 Z" fill="#2ca02c" />
<path d="M 743.62 666.31 L 748.62 675.31 L 738.62 675.31 Z" fill="#2ca02c" />
<path d="M 802.38 704.99 L 807.38 713.99 L 797.38 713.99 Z" fill="#2ca02c" />
<path d="M 861.14 774.08 L 866.14 783.08 L 856.14 783.08 Z" fill="#2ca02c" />
<path d="M 919.90 808.53 L 924.90 817.53 L 914.90 817.53 Z" fill="#2ca02c" />
<path d="M 978.67 826.64 L 983.67 835.64 L 973.67 835.64 Z" fill="#2ca02c" />
<path class="series" d="M 743.62 581.35 L 802.38 681.03 L 861.14 763.35 L 919.90 805.13 L 978.67 826.48" stroke="#d62728"/>
<path d="M 743.62 576.35 L 748.62 581.35 L 743.62 586.35 L 738.62 581.35 Z" fill="#d62728" />
<path d="M 802.38 676.03 L 807.38 681.03 L 802.38 686.03 L 797.38 681.03 Z" fill="#d62728" />
<path d="M 861.14 758.35 L 866.14 763.35 L 861.14 768.35 L 856.14 763.35 Z" fill="#d62728" />
<path d="M 919.90 800.13 L 924.90 805.13 L 919.90 810.13 L 914.90 805.13 Z" fill="#d62728" />
<path d="M 978.67 821.48 L 983.67 826.48 L 978.67 831.48 L 973.67 826.48 Z" fill="#d62728" />
</g>
<text class="axis-label" x="773.00" y="906.00" text-anchor="middle">Total cores = nodes x ppn x threads</text>
<text class="axis-label" x="24" y="465.00" text-anchor="middle" transform="rotate(-90 24 465.00)">Runtime / solve time (seconds)</text>
<text class="panel-title" x="1086.67" y="565.00">Threads</text>
<line x1="1086.67" y1="595.00" x2="1120.67" y2="595.00" stroke="#1f77b4" stroke-width="2.7"/>
<circle cx="1103.67" cy="595.00" r="4" fill="#1f77b4" />
<text class="axis-label" x="1134.67" y="600.00">T = 1</text>
<line x1="1086.67" y1="625.00" x2="1120.67" y2="625.00" stroke="#ff7f0e" stroke-width="2.7"/>
<rect x="1099.67" y="621.00" width="8" height="8" fill="#ff7f0e" />
<text class="axis-label" x="1134.67" y="630.00">T = 2</text>
<line x1="1086.67" y1="655.00" x2="1120.67" y2="655.00" stroke="#2ca02c" stroke-width="2.7"/>
<path d="M 1103.67 650.00 L 1108.67 659.00 L 1098.67 659.00 Z" fill="#2ca02c" />
<text class="axis-label" x="1134.67" y="660.00">T = 4</text>
<line x1="1086.67" y1="685.00" x2="1120.67" y2="685.00" stroke="#d62728" stroke-width="2.7"/>
<path d="M 1103.67 680.00 L 1108.67 685.00 L 1103.67 690.00 L 1098.67 685.00 Z" fill="#d62728" />
<text class="axis-label" x="1134.67" y="690.00">T = 8</text>
</svg>
